#!OML:ASF I:\Actors\actors\Patient Classification 1\Patient 1\Session 1\Subject1.ASF
:FULLY-SPECIFIED
:DEGREES
1249
root 1.17869 17.5303 8.06184 16.7549 4.56382 -6.43231
lowerback 5.36298 1.04049 0.800406
upperback -6.60845 1.62935 1.49127
thorax -10.0575 0.803661 0.913285
lowerneck -17.0564 -8.29485 -5.01371
upperneck 17.7427 -12.7603 11.7369
head 9.54909 -5.09201 3.08914
rclavicle 1.88845e-015 -6.36111e-015
rhumerus 0.626393 19.083 -96.1983
rradius 86.3551
rwrist -8.40001
rhand -7.52912 -72.123
rfingers 7.12502
rthumb 18.3619 -618.724
lclavicle 1.88845e-015 -6.36111e-015
lhumerus 24.4051 -49.6294 71.7194
lradius 71.806
lwrist 54.5503
lhand -20.0287 6.11774
lfingers 7.12502
lthumb 6.31216 36.0037
rfemur -11.9556 40.0073 10.1815
rtibia -0.658725
rfoot -26.2355 -45.7718
rtoes 18.698
lfemur -11.2979 -60.3741 -3.23813
ltibia -5.33586
lfoot -33.6501 65.319
ltoes 24.1815
1250
root 1.15541 17.5355 8.05011 16.628 3.99151 -6.46447
lowerback 5.33372 0.93305 0.847538
upperback -6.55819 1.48576 1.48963
thorax -9.98073 0.729838 0.905808
lowerneck -17.4907 -8.38662 -4.8358
upperneck 18.2907 -12.9059 11.3359
head 9.78974 -5.15008 2.88704
rclavicle 1.63997e-014 3.26007e-014
rhumerus 1.666 19.7971 -94.6611
rradius 85.4412
rwrist -9.61741
rhand -7.57696 -71.8657
rfingers 7.12502
rthumb 18.3158 -618.977
lclavicle 1.63997e-014 3.26007e-014
lhumerus 23.7598 -49.5404 72.5027
lradius 71.9995
lwrist 54.9927
lhand -20.8724 5.3891
lfingers 7.12502
lthumb 5.49756 35.2978
rfemur -12.0198 39.969 10.243
rtibia -0.628327
rfoot -25.4797 -45.4092
rtoes 17.7568
lfemur -10.7348 -59.9321 -3.69537
ltibia -5.3656
lfoot -34.3095 65.1611
ltoes 24.7623
1251
root 1.13219 17.5379 8.0389 16.6047 3.47631 -6.48915
lowerback 5.22902 0.839746 0.888956
upperback -6.6035 1.36379 1.512
thorax -9.96642 0.668229 0.924812
lowerneck -17.6376 -8.22452 -4.57177
upperneck 18.7489 -12.6538 10.711
head 9.88699 -5.05952 2.66585
rclavicle -3.42904e-015 1.23246e-014
rhumerus 1.95159 19.9949 -93.7005
rradius 84.9494
rwrist -10.1704
rhand -7.86075 -71.9954
rfingers 7.12502
rthumb 18.0428 -618.822
lclavicle -3.42904e-015 1.23246e-014
lhumerus 22.7821 -49.4203 73.5738
lradius 72.2341
lwrist 55.0367
lhand -21.8956 4.38224
lfingers 7.12502
lthumb 4.50955 34.3142
rfemur -12.2084 39.7786 10.2477
rtibia -0.581231
rfoot -24.6059 -44.9681
rtoes 16.9589
lfemur -10.3692 -59.504 -3.9547
ltibia -5.43665
lfoot -34.8119 65.0633
ltoes 25.123
1252
root 1.10957 17.5381 8.03088 16.5832 2.93337 -6.53205
lowerback 5.08877 0.7849 0.994541
upperback -6.64739 1.29793 1.51846
thorax -9.92817 0.628569 0.883336
lowerneck -17.6757 -8.0706 -4.44137
upperneck 19.1144 -12.4181 10.3024
head 9.96182 -4.97142 2.54066
rclavicle -1.78906e-015 1.31198e-014
rhumerus 1.61019 19.6239 -93.3349
rradius 84.9071
rwrist -10.2958
rhand -8.46327 -72.3147
rfingers 7.12502
rthumb 17.463 -618.45
lclavicle -1.78906e-015 1.31198e-014
lhumerus 21.5412 -49.1799 74.8595
lradius 72.5434
lwrist 54.1063
lhand -24.8885 1.97379
lfingers 7.12502
lthumb 1.61924 31.9474
rfemur -12.4159 39.6811 10.2517
rtibia -0.499023
rfoot -23.8737 -44.4982
rtoes 16.3841
lfemur -9.80401 -59.0668 -4.35087
ltibia -5.57765
lfoot -35.9518 64.7822
ltoes 25.927
1253
root 1.0888 17.538 8.02504 16.5052 2.36396 -6.57841
lowerback 4.94617 0.780018 1.13333
upperback -6.64024 1.30031 1.51354
thorax -9.83167 0.619385 0.801727
lowerneck -17.9371 -7.87366 -4.59982
upperneck 19.8204 -12.1317 10.1156
head 10.2335 -4.83558 2.53966
rclavicle -6.26172e-015 -3.81667e-014
rhumerus 2.35019 20.1027 -92.0762
rradius 84.1543
rwrist -11.2581
rhand -8.68856 -72.2456
rfingers 7.12502
rthumb 17.2462 -618.5
lclavicle -6.26172e-015 -3.81667e-014
lhumerus 20.2852 -48.8531 76.2521
lradius 72.937
lwrist 52.0733
lhand -26.5083 2.05681
lfingers 7.12502
lthumb 0.0547956 32.0365
rfemur -12.5416 39.5652 10.3053
rtibia -0.431295
rfoot -23.007 -44.0388
rtoes 15.4012
lfemur -9.0427 -58.6403 -4.93511
ltibia -5.70777
lfoot -37.4339 64.3836
ltoes 27.0167
1254
root 1.07126 17.5378 8.02099 16.3976 1.74757 -6.61513
lowerback 4.8138 0.815326 1.32127
upperback -6.64128 1.35785 1.46381
thorax -9.74846 0.631658 0.637579
lowerneck -17.8629 -7.73804 -4.32665
upperneck 20.0144 -11.8902 9.52027
head 10.2058 -4.76799 2.32952
rclavicle -1.92573e-014 1.59028e-014
rhumerus 3.17035 20.7654 -90.6905
rradius 82.8773
rwrist -12.0506
rhand -8.53682 -72.0442
rfingers 7.12502
rthumb 17.3923 -618.714
lclavicle -1.92573e-014 1.59028e-014
lhumerus 19.0006 -48.5406 77.6114
lradius 73.3903
lwrist 49.4429
lhand -28.0692 3.38473
lfingers 7.12502
lthumb -1.45276 33.3595
rfemur -12.6079 39.2187 10.386
rtibia -0.405322
rfoot -21.7892 -43.3856
rtoes 14.0668
lfemur -8.1529 -58.1971 -5.68147
ltibia -5.81145
lfoot -39.4317 63.8141
ltoes 28.4797
1255
root 1.05323 17.538 8.01687 16.3017 1.11042 -6.63067
lowerback 4.69885 0.844729 1.486
upperback -6.67189 1.40577 1.41302
thorax -9.70863 0.640785 0.486645
lowerneck -17.8291 -7.46753 -4.11057
upperneck 20.4505 -11.529 9.16013
head 10.2877 -4.61284 2.22812
rclavicle 5.8393e-015 1.98785e-014
rhumerus 3.91779 21.6563 -89.4166
rradius 82.0264
rwrist -12.5741
rhand -8.34473 -72.2103
rfingers 7.12502
rthumb 17.5771 -618.564
lclavicle 5.8393e-015 1.98785e-014
lhumerus 17.8165 -48.2643 78.7887
lradius 73.6075
lwrist 47.2326
lhand -29.8451 3.31479
lfingers 7.12502
lthumb -3.16787 33.271
rfemur -12.7138 38.7927 10.4439
rtibia -0.329339
rfoot -20.5345 -42.6034
rtoes 12.8091
lfemur -7.35467 -57.7296 -6.38757
ltibia -5.88365
lfoot -41.2925 63.2871
ltoes 29.754
